<svg xmlns="http://www.w3.org/2000/svg" id="a98d2b4a-3e2b-43ce-8392-33747c977e5a" width="889.147" height="639.195" data-name="Layer 1" viewBox="0 0 889.147 639.195"><title>selecting_team</title><path fill="#d0cde1" d="M729.579,747.29446s7.87774-26.50562-22.08047-41.59627Z" transform="translate(-155.42638 -130.40238)"/><path fill="#d0cde1" d="M730.56068,747.436s3.12266-26.15968,38.01294-27.79952Z" transform="translate(-155.42638 -130.40238)"/><path fill="#d0cde1" d="M1044.57305,750.99632c-6.28987,25.87621-336.49924,23.704-335.99886-.00154C714.864,725.1201,1045.07334,727.29234,1044.57305,750.99632Z" transform="translate(-155.42638 -130.40238)"/><rect width="612" height="444.408" fill="#d0cde1"/><circle cx="12.06" cy="7.946" r="4.819" fill="#fff"/><circle cx="30.351" cy="7.946" r="4.819" fill="#fff"/><circle cx="48.642" cy="7.946" r="4.819" fill="#fff"/><rect width="612" height="3.402" x=".351" y="19.268" fill="#fff"/><rect width="243.961" height="14.476" x="276.515" y="101.905" fill="#fff"/><rect width="152" height="14.476" x="276.515" y="139.844" fill="#fff"/><rect width="60.276" height="14.476" x="276.515" y="177.783" fill="#fff"/><path fill="#3f3d56" d="M398.18277,277.48986a74.85529,74.85529,0,0,1-12.23688,41.13883,73.181,73.181,0,0,1-5.50556,7.39351A75.5701,75.5701,0,0,1,364.309,340.35457q-2.46126,1.631-5.06081,3.0543a74.61964,74.61964,0,0,1-29.238,9.00467c-2.33271.22738-4.705.33609-7.097.33609a74.96735,74.96735,0,0,1-19.42286-2.54029,72.11343,72.11343,0,0,1-10.50711-3.64735q-2.60949-1.12683-5.10032-2.45131a74.1406,74.1406,0,0,1-11.33743-7.34415q-2.476-1.92744-4.77412-4.06247a75.26572,75.26572,0,1,1,126.41145-55.2142Z" transform="translate(-155.42638 -130.40238)"/><path fill="#ffb8b8" d="M304.67312,284.28937s6.8519,19.03306,1.52265,29.69157,8.37454,22.83966,8.37454,22.83966,35.78215-18.27173,31.21421-27.4076-12.18115-21.317-10.65851-28.93024Z" transform="translate(-155.42638 -130.40238)"/><circle cx="162.57" cy="136.757" r="24.362" fill="#ffb8b8"/><path fill="#575a89" d="M303.4903,350.20934a72.11343,72.11343,0,0,1-10.50711-3.64735l.6524-18.49372,6.84988-15.23182a31.84425,31.84425,0,0,0,4.92241,3.17285c.41513.22739.84021.44481,1.29485.6623,6.42486,3.10372,16.92208,5.83176,27.09315-1.77918a38.73955,38.73955,0,0,0,9.36049-10.53679l18.99784,10.76411.99827,11.66358,1.15652,13.57125q-2.46126,1.631-5.06081,3.0543a74.61964,74.61964,0,0,1-29.238,9.00467c-2.33271.22738-4.705.33609-7.097.33609A74.96735,74.96735,0,0,1,303.4903,350.20934Z" transform="translate(-155.42638 -130.40238)"/><path fill="#575a89" d="M308.16566,301.43972v.02968l-.95881,9.9437-.50412,5.2585-.74133,7.81853-2.4711,25.71921a72.11343,72.11343,0,0,1-10.50711-3.64735q-2.60949-1.12683-5.10032-2.45131a74.1406,74.1406,0,0,1-11.33743-7.34415l-2.70831-12.50372.20759-.1384Z" transform="translate(-155.42638 -130.40238)"/><path fill="#575a89" d="M359.24819,343.40887a74.61964,74.61964,0,0,1-29.238,9.00467c.55352-9.25178,1.364-18.18725,2.28329-26.14423.47443-4.08226.97854-7.89762,1.50244-11.37689,1.65068-11.17924,3.42986-18.77051,4.70492-19.79846l8.42153,5.56491,34.25933,12.17758-.74133,13.18575A75.5701,75.5701,0,0,1,364.309,340.35457Q361.84774,341.98555,359.24819,343.40887Z" transform="translate(-155.42638 -130.40238)"/><path fill="#575a89" d="M276.54544,336.76653q-2.476-1.92744-4.77412-4.06247l1.30475-8.44125.96865-.1384,4.359-.62272,9.47916,20.609A74.1406,74.1406,0,0,1,276.54544,336.76653Z" transform="translate(-155.42638 -130.40238)"/><path fill="#575a89" d="M385.94589,318.62869a73.181,73.181,0,0,1-5.50556,7.39351A75.5701,75.5701,0,0,1,364.309,340.35457q-2.46126,1.631-5.06081,3.0543l-.89951-3.92413,4.8038-12.70142,5.8516-15.4691,12.17758,1.52223A71.30147,71.30147,0,0,1,385.94589,318.62869Z" transform="translate(-155.42638 -130.40238)"/><path fill="#2f2e41" d="M341.22828,245.12522a28.46114,28.46114,0,0,0-16.18976-12.3767l-4.94985,3.95987,1.92442-4.61874a26.19991,26.19991,0,0,0-4.89228-.28275l-4.4536,5.72609,1.84328-5.53a28.189,28.189,0,0,0-19.4461,11.5671c-5.66837,8.17324-6.62483,19.5396-1.04978,27.77676,1.53044-4.70314,3.38791-9.11626,4.91834-13.81945a13.921,13.921,0,0,0,3.62618.01767l1.862-4.34459.52011,4.16084c5.77114-.50285,14.33116-1.60669,19.80244-2.61812l-.532-3.19193,3.183,2.65249c1.67629-.38593,2.67152-.73582,2.58928-1.00328,4.06908,6.55987,8.10092,10.74979,12.1699,17.3096C343.69847,261.25725,346.42525,253.566,341.22828,245.12522Z" transform="translate(-155.42638 -130.40238)"/><ellipse cx="184.453" cy="135.992" fill="#ffb8b8" rx="1.649" ry="3.298"/><rect width="243.961" height="14.476" x="276.515" y="274.819" fill="#fff"/><rect width="152" height="14.476" x="276.515" y="312.758" fill="#fff"/><rect width="60.276" height="14.476" x="276.515" y="350.697" fill="#fff"/><path fill="#fff" d="M398.18277,450.40324a74.85535,74.85535,0,0,1-12.23688,41.13884,73.17973,73.17973,0,0,1-5.50556,7.3935A75.5701,75.5701,0,0,1,364.309,513.268q-2.46126,1.631-5.06081,3.05431a74.61963,74.61963,0,0,1-29.238,9.00466c-2.33271.22738-4.705.3361-7.097.3361a74.96735,74.96735,0,0,1-19.42286-2.5403,72.11339,72.11339,0,0,1-10.50711-3.64734q-2.60949-1.12683-5.10032-2.45131a74.1399,74.1399,0,0,1-11.33743-7.34416q-2.476-1.92744-4.77412-4.06247a75.26572,75.26572,0,1,1,126.41145-55.2142Z" transform="translate(-155.42638 -130.40238)"/><rect width="6.456" height="70.131" x="164.264" y="284.931" fill="#6c63ff"/><rect width="6.456" height="70.131" x="319.69" y="415.333" fill="#6c63ff" transform="translate(617.88999 -2.92216) rotate(90)"/><path fill="#2f2e41" d="M896.95091,636.96666s-3.45553-11.699,2.17264-7.88215,21.99774,9.54882,16.09859,18.72735S874.01845,707.72977,868.309,697.675c-3.16977-5.58216,7.87128-52.92625,7.87128-52.92625s7.85665-1.81511,8.98139.00523S896.95091,636.96666,896.95091,636.96666Z" transform="translate(-155.42638 -130.40238)"/><polygon fill="#ffb8b8" points="690.871 207.972 689.816 226.963 676.101 254.394 721.468 252.284 718.303 223.798 720.413 212.192 690.871 207.972"/><path fill="#d0cde1" d="M841.02248,371.08075s7.38534,8.44039,26.37622-1.05505L882.16939,441.769l2.11009,64.358-63.30293-2.1101,1.05505-65.413Z" transform="translate(-155.42638 -130.40238)"/><path fill="#ffb8b8" d="M805.63578,507.65339s6.81583,33.48456,19.55881,25.37237-2.74637-31.62022-2.74637-31.62022Z" transform="translate(-155.42638 -130.40238)"/><polygon fill="#ffb8b8" points="713.027 557.193 711.972 575.129 728.853 580.404 728.853 556.138 713.027 557.193"/><polygon fill="#2f2e41" points="657.11 369.394 657.11 474.899 717.248 526.597 732.018 501.275 689.816 466.459 700.367 440.083 744.679 411.596 744.679 370.449 657.11 369.394"/><path fill="#2f2e41" d="M856.84821,565.20973l6.3303,53.80749,2.11009,71.74332h27.43127s9.49544-63.30293-1.05505-79.12866l8.4404-69.63322-8.4404-27.43127Z" transform="translate(-155.42638 -130.40238)"/><path fill="#2f2e41" d="M881.11434,704.47617s1.05505-4.22019-6.3303-4.22019-10.55049,1.055-10.55049,2.1101a45.69491,45.69491,0,0,1-1.055,5.27524s-18.99088,47.4772,0,45.3671,22.156-11.60554,22.156-11.60554l2.1101-30.59641s-2.1101-2.58363-3.16515-2.34686S881.11434,704.47617,881.11434,704.47617Z" transform="translate(-155.42638 -130.40238)"/><circle cx="707.752" cy="195.311" r="23.211" fill="#ffb8b8"/><path fill="#575a89" d="M867.3987,377.411l-7.38534-8.44039,14.27848-17.86635,5.76745,6.26081,33.76156,14.77068-9.49544,92.8443s-1.05505,27.43127,5.27524,46.42215c0,0-13.71563,16.88078-34.81661,12.66059l-27.43127,5.27524S844.18763,393.23677,867.3987,377.411Z" transform="translate(-155.42638 -130.40238)"/><polygon fill="#575a89" points="688.761 241.733 689.973 224.15 684.541 231.183 656.055 252.284 659.22 369.394 668.715 374.67 684.541 249.119 688.761 241.733"/><path fill="#575a89" d="M818.86646,381.63123l-7.38535,1.055s-5.27524,9.49544-5.27524,10.55049-2.1101,55.91759-2.1101,55.91759-3.69267,55.39006,2.63762,65.94055l18.678-20.09584-6.54493-18.41344Z" transform="translate(-155.42638 -130.40238)"/><polygon points="707.197 483.892 708.652 519.207 704.265 515.436 707.197 483.892" opacity=".3"/><polygon points="742.272 497.981 740.733 498.744 739.082 546.054 742.895 541.146 742.272 497.981" opacity=".3"/><path fill="#3f3d56" d="M1043.83861,599.77481a75.361,75.361,0,0,1-17.74,48.54,75.8021,75.8021,0,0,1-12.01,11.4q-2.01,1.53-4.11988,2.93-.54017.36-1.08008.69c-1.31.84-2.64,1.62-3.99,2.36q-.81006.45-1.62.87c-.11.06-.21008.11005-.32.16-.69006.36-1.38012.71-2.08008,1.04a73.68107,73.68107,0,0,1-9.45,3.74,74.6814,74.6814,0,0,1-15.76,3.2q-3.51012.33-7.10009.33a74.93418,74.93418,0,0,1-19.41993-2.54,72.30892,72.30892,0,0,1-9.54-3.23c-.31994-.13-.65-.27-.97-.41q-2.28-.99-4.47-2.13l-.63-.33q-2.385-1.245-4.66-2.66a75.44748,75.44748,0,0,1-6.68-4.68q-1.635-1.26-3.18-2.64c-.54-.46-1.07-.94-1.59-1.42a76.78252,76.78252,0,0,1-5.75-5.94c-.72-.83-1.42-1.67-2.1-2.53a75.26946,75.26946,0,1,1,134.26-46.75Z" transform="translate(-155.42638 -130.40238)"/><path fill="#ffb8b8" d="M928.59153,512.45729s-5.27524,33.76156,9.49544,30.59641,8.44039-30.59641,8.44039-30.59641Z" transform="translate(-155.42638 -130.40238)"/><path fill="#575a89" d="M904.32541,372.13579h9.49544s6.33029,3.16515,7.38534,12.66059,15.82573,51.69739,15.82573,51.69739,16.88079,69.63323,15.82574,79.12866H926.48144l2.11009-18.99087L900.10522,420.668Z" transform="translate(-155.42638 -130.40238)"/><circle cx="836.633" cy="491.814" r="11.281" fill="#2f2e41"/><path fill="#2f2e41" d="M995.20224,611.24546a11.28258,11.28258,0,0,1,9.93073,16.63487A11.27832,11.27832,0,1,0,986.3949,615.4876,11.25319,11.25319,0,0,1,995.20224,611.24546Z" transform="translate(-155.42638 -130.40238)"/><circle cx="815.553" cy="458.652" r="33.138" fill="#2f2e41"/><path fill="#2f2e41" d="M944.97122,568.49356a33.132,33.132,0,0,1,45.925-3.47458c-.271-.25759-.53908-.51727-.82066-.76758a33.138,33.138,0,0,0-44.03394,49.53291c.28157.25031.57087.48616.85842.7251A33.132,33.132,0,0,1,944.97122,568.49356Z" transform="translate(-155.42638 -130.40238)"/><circle cx="815.272" cy="470.166" r="21.343" fill="#a0616a"/><path fill="#a0616a" d="M955.53347,607.308s2.80831,25.83638-1.685,28.64468,25.83638,6.73992,25.83638,6.73992-4.49329-28.083,6.73992-35.3846Z" transform="translate(-155.42638 -130.40238)"/><path fill="#6c63ff" d="M1008.88865,656.17483v8.16c-1.31.84-2.64,1.62-3.99,2.36q-.81006.45-1.62.87v.16h-.32c-.69006.36-1.38012.71-2.08008,1.04a73.68107,73.68107,0,0,1-9.45,3.74,74.6814,74.6814,0,0,1-15.76,3.2q-3.51012.33-7.10009.33a74.93418,74.93418,0,0,1-19.41993-2.54,72.30892,72.30892,0,0,1-9.54-3.23c-.31994-.13-.65-.27-.97-.41q-2.28-.99-4.47-2.13l-.63-.33q-2.385-1.245-4.66-2.66a75.44748,75.44748,0,0,1-6.68-4.68q-1.635-1.26-3.18-2.64c-.54-.46-1.07-.94-1.59-1.42a76.78252,76.78252,0,0,1-5.75-5.94,27.67379,27.67379,0,0,1,1.18-4.99l.01-.01a10.46736,10.46736,0,0,1,.54-1.24c2.42-4.53,6.79-5.65,12.23-5.88995,3.06-.13,6.45.01,10.04-.03,1.89-.01,3.84-.08,5.81-.26,12.36005-1.12,10.11005-8.42,10.67-12.35.55-3.81,3.98-.51,4.21-.29l.01.01s10.39,5.33,22.42994,3.94h.01a38.55568,38.55568,0,0,1,3.97009-.3c3.48-.04,2.72.96,1.52991,1.78a15.76359,15.76359,0,0,1-1.83,1.03s-.55994,3.37-1.12,8.43c-.54,4.84,8.73,7.11,9.5,7.28a.10128.10128,0,0,0,.05.02c4.39991-.94,7.75-.65,10.29.26A12.20381,12.20381,0,0,1,1008.88865,656.17483Z" transform="translate(-155.42638 -130.40238)"/><path fill="#2f2e41" d="M939.73863,667.72482c-.03.91-.08,1.76-.13,2.54-.31994-.13-.65-.27-.97-.41q-2.28-.99-4.47-2.13l-.63-.33q-2.385-1.245-4.66-2.66a23.42467,23.42467,0,0,1,.26-2.38,43.54213,43.54213,0,0,0-3.5-24.43c-.27-.55005-.43-.85-.43-.85s3.93-3.37,9.54,0a3.7075,3.7075,0,0,1,.93.82C939.39866,642.30478,940.12864,658.18478,939.73863,667.72482Z" transform="translate(-155.42638 -130.40238)"/><path fill="#2f2e41" d="M1000.92869,667.72482c-.01.34-.03.69-.05,1.04a73.68107,73.68107,0,0,1-9.45,3.74l-.19006-4.78-.72-18.98a3.01327,3.01327,0,0,1,.35-1.58,3.06591,3.06591,0,0,1,2.74-1.66h6.86011c.33985,0,.57984.69.74,1.94C1001.63865,650.91482,1001.42869,658.68478,1000.92869,667.72482Z" transform="translate(-155.42638 -130.40238)"/><polygon fill="#2f2e41" points="797.018 443.487 797.018 464.83 801.961 464.83 808.251 458.09 807.409 464.83 829.257 464.83 827.909 458.09 830.605 464.83 834.088 464.83 834.088 443.487 797.018 443.487"/><ellipse cx="793.648" cy="465.672" fill="#a0616a" rx="1.685" ry="3.089"/><ellipse cx="836.896" cy="465.672" fill="#a0616a" rx="1.685" ry="3.089"/><path fill="#6c63ff" d="M1014.08861,660.71481q-2.01,1.53-4.11988,2.93-.54017.36-1.08008.69c-1.31.84-2.64,1.62-3.99,2.36q-.81006.45-1.62.87V651.67483s2.17,1.73,5.61,4.61C1010.39866,657.55478,1012.15867,659.05478,1014.08861,660.71481Z" transform="translate(-155.42638 -130.40238)"/><path fill="#6c63ff" d="M920.70866,642.69479l-1.69,14.72c-.54-.46-1.07-.94-1.59-1.42a76.78252,76.78252,0,0,1-5.75-5.94c-.72-.83-1.42-1.67-2.1-2.53,1.94-1.47,3.13-2.35,3.28-2.46l.01-.01Z" transform="translate(-155.42638 -130.40238)"/><path fill="#2f2e41" d="M843.43406,303.41613l-4.42481-1.77144s9.25184-10.18576,22.12407-9.3l-3.6204-3.98577s8.84961-3.54283,16.89469,5.75716c4.22915,4.88879,9.12231,10.63534,12.17269,17.10874H891.319l-1.97773,4.35476,6.92209,4.35475-7.10485-.7822a24.3348,24.3348,0,0,1,.1928,7.22317,9.34578,9.34578,0,0,1-3.42233,6.11385h0s-5.48756-11.35872-5.48756-13.13017v4.4286s-4.4248-3.98572-4.4248-6.64285l-2.41351,3.1-1.20675-4.87147-14.88339,4.87147,2.41351-3.98571-9.25184,1.32856,3.62039-4.87147s-10.45858,5.75716-10.86092,10.62863a23.38913,23.38913,0,0,1-3.46348,9.48738S831.76869,310.059,843.43406,303.41613Z" transform="translate(-155.42638 -130.40238)"/></svg>